#!OML:ASF F:\VICON\USERDATA\INSTALL\rory3\rory3.ASF
:FULLY-SPECIFIED
:DEGREES
208
root 3.10045 16.7528 -0.0843114 14.9803 5.59989 10.5698
lowerback -6.87219 1.57286 0.190414
upperback -1.85441 2.29629 -7.43908
thorax 2.25214 1.17711 -7.71012
lowerneck -2.15568 14.3653 5.15991
upperneck 47.1022 23.9755 -2.0102
head 19.7275 10.4827 2.10994
rclavicle -3.77691e-015 5.96354e-014
rhumerus -36.2847 4.50482 -94.055
rradius 42.859
rwrist -36.2948
rhand -9.19771 -51.2749
rfingers 7.12502
rthumb 16.7561 -80.5718
lclavicle -3.77691e-015 5.96354e-014
lhumerus -27.8649 -20.0727 82.3232
lradius 41.3147
lwrist 73.0858
lhand -37.8817 -13.9421
lfingers 7.12502
lthumb -10.9252 15.7536
rfemur -49.6958 23.6699 -5.82861
rtibia 73.5299
rfoot 4.36144 7.51817
rtoes -36.6919
lfemur -31.7805 -6.77482 -36.383
ltibia 38.1934
lfoot -16.7014 10.2588
ltoes 4.1445
209
root 3.09859 16.7578 -0.0753351 14.7629 5.84202 10.7623
lowerback -6.74944 1.46137 -0.0149714
upperback -1.76526 2.16192 -7.45567
thorax 2.25126 1.10996 -7.62276
lowerneck -2.0992 14.3702 5.18006
upperneck 47.1211 23.978 -1.99796
head 19.7272 10.4904 2.10808
rclavicle 5.2181e-015 -4.69132e-014
rhumerus -36.3685 4.62119 -94.1509
rradius 42.9483
rwrist -36.5654
rhand -9.82154 -51.2817
rfingers 7.12502
rthumb 16.1555 -80.6284
lclavicle 5.2181e-015 -4.69132e-014
lhumerus -27.9512 -20.0086 82.3288
lradius 41.3633
lwrist 73.0654
lhand -37.4896 -14.4418
lfingers 7.12502
lthumb -10.547 15.2736
rfemur -49.1734 23.6041 -5.74828
rtibia 73.4932
rfoot 4.23253 7.46264
rtoes -36.717
lfemur -31.4192 -6.96493 -36.5267
ltibia 38.1627
lfoot -16.8031 10.1433
ltoes 4.82374
210
root 3.09732 16.7536 -0.0885132 15.2023 5.23574 10.5039
lowerback -7.05193 1.66875 0.0982195
upperback -1.99555 2.42917 -7.43339
thorax 2.21964 1.24025 -7.6348
lowerneck -2.1119 14.3884 5.17252
upperneck 47.1112 24.012 -2.00723
head 19.727 10.5011 2.11202
rclavicle -6.26172e-015 5.88403e-014
rhumerus -36.4102 4.77922 -94.2569
rradius 43.0195
rwrist -36.8031
rhand -10.6147 -51.0316
rfingers 7.12502
rthumb 15.3916 -80.4386
lclavicle -6.26172e-015 5.88403e-014
lhumerus -28.0211 -19.9068 82.324
lradius 41.3962
lwrist 72.9995
lhand -37.4317 -14.5682
lfingers 7.12502
lthumb -10.4911 15.15
rfemur -50.1854 23.906 -6.04053
rtibia 73.489
rfoot 4.4781 7.47316
rtoes -36.7172
lfemur -32.2112 -6.70422 -36.2782
ltibia 38.2286
lfoot -16.8222 10.1204
ltoes 6.27704
211
root 3.09545 16.7608 -0.0911496 15.2109 5.24635 10.4507
lowerback -7.02742 1.67912 0.13916
upperback -1.98263 2.43961 -7.41865
thorax 2.22183 1.24591 -7.64195
lowerneck -2.17753 14.3943 5.16742
upperneck 47.101 24.018 -2.00181
head 19.7346 10.5 2.12315
rclavicle 2.83765e-014 -2.38542e-015
rhumerus -36.3103 4.69812 -94.1658
rradius 42.979
rwrist -36.4233
rhand -9.43096 -52.5164
rfingers 7.12502
rthumb 16.5316 -81.8322
lclavicle 2.83765e-014 -2.38542e-015
lhumerus -27.9597 -19.8836 82.3131
lradius 41.3823
lwrist 72.9449
lhand -37.369 -14.6285
lfingers 7.12502
lthumb -10.4306 15.0928
rfemur -50.2211 23.9738 -5.98473
rtibia 73.4704
rfoot 4.51145 7.2582
rtoes -36.4074
lfemur -32.3113 -6.6831 -36.1886
ltibia 38.2779
lfoot -16.8525 10.0071
ltoes 6.84896
212
root 3.09558 16.7566 -0.0907372 15.2633 5.20967 10.4398
lowerback -7.09876 1.69976 0.15972
upperback -1.98068 2.46903 -7.42318
thorax 2.26875 1.26172 -7.65451
lowerneck -2.21802 14.3898 5.15635
upperneck 47.1344 23.9912 -1.94324
head 19.7485 10.4906 2.15185
rclavicle 1.01877e-014 -2.06736e-014
rhumerus -36.2514 4.55628 -94.0637
rradius 42.9664
rwrist -36.0508
rhand -8.26243 -54.0299
rfingers 7.12502
rthumb 17.6563 -83.2482
lclavicle 1.01877e-014 -2.06736e-014
lhumerus -27.8738 -19.9013 82.3038
lradius 41.3345
lwrist 72.9229
lhand -37.2533 -14.8955
lfingers 7.12502
lthumb -10.319 14.8313
rfemur -50.3415 23.9333 -5.99985
rtibia 73.5097
rfoot 4.46833 7.30354
rtoes -36.376
lfemur -32.391 -6.6077 -36.2106
ltibia 38.3584
lfoot -16.8364 10.1206
ltoes 5.82331
213
root 3.09684 16.7512 -0.0910805 15.2854 5.19808 10.3792
lowerback -7.12449 1.70911 0.247838
upperback -2.00246 2.47475 -7.41603
thorax 2.2645 1.26453 -7.69722
lowerneck -2.25064 14.3944 5.11554
upperneck 47.1415 23.9946 -1.91633
head 19.7469 10.4867 2.17279
rclavicle 2.48481e-014 -3.10104e-014
rhumerus -36.2962 4.45002 -94.0336
rradius 43.0318
rwrist -36.0018
rhand -9.14737 -52.3852
rfingers 7.12502
rthumb 16.8046 -81.678
lclavicle 2.48481e-014 -3.10104e-014
lhumerus -27.8618 -19.9322 82.2932
lradius 41.3272
lwrist 72.9664
lhand -37.3908 -14.8158
lfingers 7.12502
lthumb -10.4517 14.9044
rfemur -50.4074 23.9396 -5.96011
rtibia 73.5387
rfoot 4.52113 7.34795
rtoes -36.1055
lfemur -32.3663 -6.55974 -36.1827
ltibia 38.3441
lfoot -16.8143 10.2196
ltoes 5.02279
